<svg xmlns="http://www.w3.org/2000/svg" xmlns:xlink="http://www.w3.org/1999/xlink" x="0px" y="0px" viewBox="0 0 250 250" style="enable-background:new 0 0 250 250;" xml:space="preserve"><style type="text/css">	.st0{fill:#FFFFFF;}	.st1{fill:#191919;}	.st2{fill:#421983;}	.st3{fill:#6B30C7;}	.st4{fill:#FF642D;}</style><g id="Layer_2">	<rect class="st1" width="250" height="250"></rect></g><g id="Layer_1">	<g>		<g>			<path class="st0" d="M209,226.2H41c-9.5,0-17.2-7.7-17.2-17.2V41c0-9.5,7.7-17.2,17.2-17.2h168c9.5,0,17.2,7.7,17.2,17.2v168    C226.2,218.5,218.5,226.2,209,226.2z M41,26.2c-8.1,0-14.8,6.6-14.8,14.8v168c0,8.1,6.6,14.8,14.8,14.8h168    c8.1,0,14.8-6.6,14.8-14.8V41c0-8.1-6.6-14.8-14.8-14.8H41z"></path>		</g>		<path class="st3" d="M121.8,108.2l-36,36c-0.6,0.6-0.6,1.5,0,2.1l72,72c0.6,0.6,1.5,0.6,2.1,0l36-36c3.4-3.4,8.7-3.9,12.7-1.4   c0.7,0.5,1.7-0.1,1.7-1V95.3c0-0.8-0.7-1.5-1.5-1.5h-84.7c-0.9,0-1.4,1-1,1.7C125.7,99.4,125.2,104.7,121.8,108.2"></path>		<g>			<path class="st0" d="M56.8,123.9h5.5l13,33.9H70l-4.1-11H53.1l-4.1,11h-5.2L56.8,123.9z M64.2,142.3l-4.7-12.7l-4.7,12.7H64.2z"></path>			<path class="st0" d="M88.4,134.9c3.1,0,5.7,1.3,7.5,3.4l0.2-3h4.3v22.2c0,6.3-4.3,10.7-11.3,10.7c-6.3,0-10.1-3.3-10.8-7.6    l4.8-0.9c0.5,2.7,2.6,4.2,6.1,4.2c4,0,6.6-2.2,6.6-6v-3.3c-1.8,2.1-4.4,3.3-7.4,3.3c-6.3,0-10.9-4.8-10.9-11.4    C77.5,139.7,82.1,134.9,88.4,134.9z M89.1,153.5c4,0,6.7-2.9,6.7-7.1c0-4.3-2.7-7.2-6.7-7.2c-4,0-6.7,2.9-6.7,7.2    C82.3,150.6,85.1,153.5,89.1,153.5z"></path>			<path class="st0" d="M105.7,146.5c0-6.7,4.8-11.6,11.4-11.6c6.5,0,11,4.4,11,10.8c0,0.7-0.1,1.4-0.2,2.2h-17.4    c0.5,4.2,3.1,6.2,6.9,6.2c3.3,0,5.2-1.5,6.1-3.9l4.5,0.8c-1.2,4.5-5.1,7.2-10.5,7.2C110.2,158.2,105.7,153.3,105.7,146.5z     M110.7,144.1h12.4c-0.5-3.3-2.7-5.2-6-5.2C114.2,138.8,111.5,140.6,110.7,144.1z"></path>			<path class="st0" d="M133.6,135.3h4.3l0.2,2.8c1.7-2,4.1-3.2,7-3.2c4.8,0,8.8,3.2,8.8,9.4v13.5h-4.7v-12.9c0-3.8-2.2-5.7-5.2-5.7    c-2.8,0-5.7,1.6-5.7,6v12.6h-4.7V135.3z"></path>			<path class="st0" d="M170.1,134.9c5.5,0,9.4,3.2,10.4,8l-4.7,0.8c-0.7-2.7-2.8-4.4-5.7-4.4c-3.9,0-6.6,2.8-6.6,7.3    c0,4.4,2.7,7.4,6.6,7.4c3.3,0,5.4-1.9,6-4.7l4.7,0.8c-0.8,4.7-5,8.1-10.6,8.1c-6.6,0-11.5-4.9-11.5-11.7    C158.6,139.8,163.5,134.9,170.1,134.9z"></path>			<path class="st0" d="M187.2,135.3l7,16.4l6.1-16.4h4.9l-12.7,32.4h-4.8l3.9-10.1l-9.7-22.3H187.2z"></path>			<path class="st0" d="M47,169.1h12.7c6.9,0,11.4,4.4,11.4,10.5c0,6-4.5,10.5-11.4,10.5H52V203H47V169.1z M52,173.7v11.9h7.7    c3.9,0,6.3-2.4,6.3-6c0-3.7-2.4-6-6.3-6H52z"></path>			<path class="st0" d="M89.3,199.3c-1.8,2.6-4.5,4.1-7.9,4.1c-4.2,0-7.2-2.4-7.2-6.5c0-4.5,3.8-6.3,8.8-7.5l6.1-1.4    c-0.5-2.8-2.4-4-5-4c-2.9,0-4.8,1.2-5.5,3.9l-4.5-0.8c1.1-4.3,4.7-7.1,10-7.1c5.8,0,9.6,3.1,9.6,9.1V203h-4.2L89.3,199.3z     M82.2,199.5c3.5,0,7-2.4,7-7.2v-0.5l-6,1.5c-2.6,0.6-4.2,1.5-4.2,3.4C79,198.4,80.3,199.5,82.2,199.5z"></path>			<path class="st0" d="M100.3,180.5h4.4l0.2,3.1c1.3-2.1,3.5-3.4,6.5-3.4c0.8,0,1.4,0.1,2.2,0.3L113,185c-0.8-0.2-1.5-0.3-2.3-0.3    c-3.1,0-5.7,2.3-5.7,6.6V203h-4.7V180.5z"></path>			<path class="st0" d="M122.7,175.9h1.1v4.7h8.1v4.1h-8.1v10.9c0,2.5,1.2,3.6,3.5,3.6c1,0,2.1-0.3,3.3-0.8l1.1,3.8    c-1.6,0.8-3.4,1.2-5.3,1.2c-4.5,0-7.2-2.5-7.2-6.9v-11.9h-4.1v-1.2L122.7,175.9z"></path>			<path class="st0" d="M136.1,180.5h4.3l0.2,2.8c1.7-2,4.1-3.2,7-3.2c4.8,0,8.8,3.2,8.8,9.4V203h-4.7v-12.9c0-3.8-2.2-5.7-5.2-5.7    c-2.8,0-5.7,1.6-5.7,6V203h-4.7V180.5z"></path>			<path class="st0" d="M161.2,191.7c0-6.7,4.8-11.6,11.4-11.6c6.5,0,11,4.4,11,10.8c0,0.7-0.1,1.4-0.2,2.2H166    c0.5,4.2,3.1,6.2,6.9,6.2c3.3,0,5.2-1.5,6.1-3.9l4.5,0.8c-1.2,4.5-5.1,7.2-10.5,7.2C165.7,203.4,161.2,198.5,161.2,191.7z     M166.2,189.3h12.4c-0.5-3.3-2.7-5.2-6-5.2C169.6,184.1,167,185.8,166.2,189.3z"></path>			<path class="st0" d="M189,180.5h4.4l0.2,3.1c1.3-2.1,3.5-3.4,6.5-3.4c0.8,0,1.4,0.1,2.2,0.3l-0.6,4.6c-0.8-0.2-1.5-0.3-2.3-0.3    c-3.1,0-5.7,2.3-5.7,6.6V203H189V180.5z"></path>		</g>		<g>			<g>				<g>					<path class="st0" d="M154.1,55.2c0-2.6-1.6-4.5-4.6-4.5h-9.8v13.4h3.2v-4.6h3.8l3.8,4.6h3.6v-0.3l-3.6-4.4      C152.7,59,154.1,57.4,154.1,55.2 M149.1,56.9h-6.2v-3.3h6.2c1.2,0,1.9,0.6,1.9,1.7C151,56.3,150.3,56.9,149.1,56.9"></path>					<polygon class="st0" points="203,50.8 200,50.8 200,55.8 191.8,55.8 191.8,50.8 188.5,50.8 188.5,64.2 191.8,64.2 191.8,58.9       200,58.9 200,64.2 203,64.2      "></polygon>					<polygon class="st0" points="130.9,50.8 127.3,62 127.1,62 123.5,50.8 117.8,50.8 117.8,64.2 120.8,64.2 120.8,53.2 121,53.2       124.6,64.2 129.6,64.2 133.2,53.2 133.4,53.2 133.4,64.2 136.6,64.2 136.6,50.8      "></polygon>					<path class="st0" d="M95.7,56.2c-1.1-0.1-3.3-0.3-4.4-0.4c-1.1-0.1-1.8-0.4-1.8-1.2c0-0.7,0.7-1.3,3.5-1.3      c2.5,0,4.7,0.5,6.7,1.5v-3c-2-0.9-4.2-1.4-6.9-1.4c-3.8,0-6.5,1.6-6.5,4.3c0,2.3,1.5,3.5,4.7,3.9c1.1,0.1,3,0.3,4.4,0.4      c1.5,0.1,1.9,0.6,1.9,1.2c0,0.9-1,1.5-3.6,1.5c-2.6,0-5.3-0.9-7.2-2.1v3.1c1.5,1,4.2,1.9,7.1,1.9c4.2,0,6.8-1.6,6.8-4.5      C100.4,57.9,99,56.6,95.7,56.2"></path>					<polygon class="st0" points="102.5,50.8 102.5,64.2 115,64.2 115,61.4 105.6,61.4 105.6,58.7 114.9,58.7 114.9,56 105.6,56       105.6,53.5 115,53.5 115,50.8      "></polygon>					<path class="st0" d="M181.8,56.2c-1.1-0.1-3.3-0.3-4.4-0.4c-1.1-0.1-1.8-0.4-1.8-1.2c0-0.7,0.7-1.3,3.5-1.3      c2.5,0,4.7,0.5,6.7,1.5v-3c-2-0.9-4.2-1.4-6.9-1.4c-3.8,0-6.5,1.6-6.5,4.3c0,2.3,1.5,3.5,4.7,3.9c1.1,0.1,3,0.3,4.4,0.4      c1.5,0.1,1.9,0.6,1.9,1.2c0,0.9-1,1.5-3.6,1.5c-2.6,0-5.3-0.9-7.2-2.1v3.1c1.5,1,4.2,1.9,7.1,1.9c4.2,0,6.8-1.6,6.8-4.5      C186.6,57.9,185.1,56.6,181.8,56.2"></path>					<path class="st0" d="M167.1,50.8v6.9c0,2.6-1.6,4-4,4c-2.4,0-4-1.4-4-4.1v-6.8h-3.2v6.5c0,4.9,3,7.3,7.2,7.3      c4,0,7.1-2.3,7.1-7.1v-6.7H167.1z"></path>				</g>				<path class="st4" d="M75.3,57.4c0,0.7-0.3,0.8-1.2,0.8c-0.9,0-1-0.2-1.1-0.8c-0.2-1.7-1.3-3.1-3.2-3.3C69.1,54,69,53.8,69,53     c0-0.7,0.1-1,0.7-1C73,52,75.3,54.7,75.3,57.4 M80.1,57.4c0-5.1-3.4-10.4-11.3-10.4H53.1c-0.3,0-0.5,0.2-0.5,0.5     c0,0.2,0.1,0.3,0.2,0.4c0.6,0.5,1.4,0.9,2.5,1.5c1.1,0.5,1.9,0.9,2.8,1.2c0.4,0.1,0.5,0.3,0.5,0.5c0,0.3-0.2,0.4-0.6,0.4H45.5     c-0.4,0-0.5,0.2-0.5,0.5c0,0.2,0.1,0.4,0.2,0.5c1,1.1,2.6,2.3,5,3.8c2.1,1.3,4.6,2.7,6.6,3.6c0.3,0.2,0.5,0.4,0.4,0.5     c0,0.2-0.2,0.4-0.6,0.4H51c-0.3,0-0.5,0.2-0.5,0.4c0,0.1,0.1,0.3,0.3,0.5c1.3,1.2,3.4,2.5,6.1,3.6c3.7,1.6,7.5,2.5,11.7,2.5     C76.6,68.1,80.1,62.1,80.1,57.4 M69.7,64.9c-4.1,0-7.5-3.3-7.5-7.5c0-4.1,3.4-7.4,7.5-7.4c4.2,0,7.5,3.3,7.5,7.4     C77.1,61.5,73.8,64.9,69.7,64.9"></path>			</g>		</g>		<g>			<path class="st0" d="M54.2,93.5c4.2,0,7.4,2.4,8.2,6.2l-2.8,0.8c-0.6-2.7-2.4-4.4-5.4-4.4c-4,0-6.2,3.2-6.2,7c0,3.8,2.2,7,6.2,7    c3.1,0,5.1-1.8,5.6-4.4l2.8,0.8c-1,3.9-4.1,6.2-8.5,6.2c-5.7,0-9.1-4.2-9.1-9.6C45,97.8,48.7,93.5,54.2,93.5z"></path>			<path class="st0" d="M64.3,106.3c0-3.7,2.6-6.4,6.3-6.4c3.6,0,6.1,2.4,6.1,5.9c0,0.4,0,0.8-0.1,1.2H67c0.2,2.3,1.7,3.4,3.8,3.4    c1.8,0,2.9-0.8,3.3-2.1l2.5,0.4c-0.7,2.5-2.8,4-5.8,4C66.8,112.7,64.3,110,64.3,106.3z M67.1,104.9h6.9c-0.2-1.8-1.5-2.9-3.3-2.9    C69,102,67.5,103,67.1,104.9z"></path>			<path class="st0" d="M79.7,100.1h2.4l0.1,1.7c0.7-1.1,1.9-1.9,3.6-1.9c0.4,0,0.7,0.1,1.2,0.2l-0.4,2.5c-0.4-0.1-0.8-0.2-1.3-0.2    c-1.7,0-3.2,1.3-3.2,3.6v6.5h-2.6V100.1z"></path>			<path class="st0" d="M92.1,97.5h0.6v2.6h4.5v2.2h-4.5v6c0,1.4,0.7,2,1.9,2c0.6,0,1.2-0.2,1.8-0.4l0.6,2.1    c-0.9,0.4-1.9,0.7-2.9,0.7c-2.5,0-4-1.4-4-3.8v-6.6h-2.2v-0.7L92.1,97.5z"></path>			<path class="st0" d="M100.8,94.4c1,0,1.7,0.7,1.7,1.6c0,1-0.7,1.6-1.7,1.6c-0.9,0-1.6-0.7-1.6-1.6    C99.1,95.1,99.8,94.4,100.8,94.4z M99.5,100.1h2.6v12.4h-2.6V100.1z"></path>			<path class="st0" d="M109.7,102.3v10.2h-2.6v-10.2h-2.9v-0.7l1.4-1.6h1.6V98c0-2.7,1.9-4.5,4.4-4.5c0.7,0,1.3,0.1,2,0.3l-0.5,2.2    c-0.5-0.1-0.8-0.3-1.3-0.3c-1.3,0-2.1,0.7-2.1,2.1v2.1h4.3v2.2H109.7z M117.1,94.4c1,0,1.7,0.7,1.7,1.6c0,1-0.7,1.6-1.7,1.6    c-0.9,0-1.6-0.7-1.6-1.6C115.4,95.1,116.1,94.4,117.1,94.4z M115.8,100.1h2.6v12.4h-2.6V100.1z"></path>			<path class="st0" d="M121.3,106.3c0-3.7,2.6-6.4,6.3-6.4c3.6,0,6.1,2.4,6.1,5.9c0,0.4,0,0.8-0.1,1.2H124c0.2,2.3,1.7,3.4,3.8,3.4    c1.8,0,2.9-0.8,3.3-2.1l2.5,0.4c-0.7,2.5-2.8,4-5.8,4C123.8,112.7,121.3,110,121.3,106.3z M124.1,104.9h6.9    c-0.2-1.8-1.5-2.9-3.3-2.9C126,102,124.5,103,124.1,104.9z"></path>			<path class="st0" d="M146.1,112.5l-0.1-1.7c-1,1.2-2.5,1.9-4.2,1.9c-3.5,0-6.1-2.7-6.1-6.4c0-3.7,2.6-6.4,6.1-6.4    c1.7,0,3.1,0.7,4.1,1.8v-7.9h2.6v18.7H146.1z M138.4,106.3c0,2.4,1.5,4.1,3.7,4.1c2.2,0,3.7-1.6,3.7-4.1s-1.5-4-3.7-4    C139.9,102.2,138.4,103.9,138.4,106.3z"></path>		</g>	</g></g></svg>